# xmcd
#
# Track frame offsets:
#	150
#	14842
#	29201
#	43189
#	57226
#	72801
#	85251
#	99550
#	112292
#	124026
#	138051
#	153173
#	167273
#	181549
#	195049
#	210724
#	223965
#	238930
#	254061
#	267111
#	280941
#	294825
#	308125
#	320829
#	334329
#
# Disc length: 4662 seconds
#
# Revision: 0
# Processed by: cddbd v1.5.2PL0 Copyright (c) Steve Scherf et al.
# Submitted via: audiograbber 1.83.01
#
DISCID=7a123419
DTITLE=HOAGIE CARMICHAEL - STARDUST [CD 2) THE SONGS OF HOAGIE CARMICHAEL
DYEAR=2008
DGENRE=Swing
TTITLE0=STARDUST (Nate King Cole)
TTITLE1=RIVERBOAT SHUFFLE (Bix Beiderbecke with Frank Trumbauer)
TTITLE2=WASHBOARD BLUES (Red Nichols and his Five Pennies)
TTITLE3=ROCKIN´ CHAIR (Jack Teagarden and Louis Armstrong)
TTITLE4=GEORGIA ON MY MIND (Mildred Bailey)
TTITLE5=LAZY RIVER (The Mills Brothers)
TTITLE6=LAZYBONES (Johnny Mercer)
TTITLE7=ONE MORNING IN MAY (Sam Browne with Ambrose)
TTITLE8=SING ME A SONG AND LET ME DANCE (Ella Fitzgerald with Chick Webb)
TTITLE9=LITTLE OLD LADY (Gracie Fields)
TTITLE10=THE NEARNESS OF YOU (Sarah Vaughan)
TTITLE11=SMALL FRY (Bing Crosby and Johnny Mercer)
TTITLE12=HEART AND SOUL (Bea Wain and Larry Clinton)
TTITLE13=TWO SLEEPY PEOPLE (Bob Hope and Shirley Ross)
TTITLE14=I GET WITHOUT YOU VERY WELL (Turner Layton)
TTITLE15=BLUE ORCHIDS (Glenn Miller with Ray Eberle)
TTITLE16=CAN´ GET INDIANA OUT OF MY MIND (Bing Crosby)
TTITLE17=SKYLARK (Dinah Shore)
TTITLE18=THE LAMPLIGHTER´S SERENADE (Frank Sinatra)
TTITLE19=HOW LITTLE WE KNOW (Steve Conway)
TTITLE20=DOCTOR, LAYER, INDIAN CHIEF (Betty Hutton)
TTITLE21=OLE BUTTERMILK SKY (Kay Kyser with Michael Douglas)
TTITLE22=IVY (Jo Stafford)
TTITLE23=MY RESISTANCE IS LOW (Dorothy Squires)
TTITLE24=IN THE COOL, COOL, COOL OF THE EVENING (Bing Crosby and Jane Wyman)
EXTD=
EXTT0=
EXTT1=
EXTT2=
EXTT3=
EXTT4=
EXTT5=
EXTT6=
EXTT7=
EXTT8=
EXTT9=
EXTT10=
EXTT11=
EXTT12=
EXTT13=
EXTT14=
EXTT15=
EXTT16=
EXTT17=
EXTT18=
EXTT19=
EXTT20=
EXTT21=
EXTT22=
EXTT23=
EXTT24=
PLAYORDER=
